<svg viewBox="0 0 64 64" xmlns="http://www.w3.org/2000/svg"><g data-name="08-Blueprint"><path d="M3 8h48a4 4 0 0 1 4 4v31a4 4 0 0 1-4 4H8a5 5 0 0 1-5-5V8Z" fill="#64b5f6"/><path d="M51 8h-5a4 4 0 0 1 4 4v28a4 4 0 0 1-4 4H8a5 5 0 0 1-5-5v3a5 5 0 0 0 5 5h43a4 4 0 0 0 4-4V12a4 4 0 0 0-4-4Z" fill="#42a5f5"/><path d="M13 8v34a5 5 0 0 0-10 0V8a5 5 0 1 1 10 0Z" fill="#90caf9"/><path d="M49 13H19a1 1 0 0 0-1 1v27a1 1 0 0 0 1 1h30a1 1 0 0 0 1-1V14a1 1 0 0 0-1-1Zm-1 27H28v-7h3a1 1 0 0 0 0-2h-4a1 1 0 0 0-1 1v8h-6V27h7a1 1 0 0 0 1-1v-6a1 1 0 0 0-2 0v5h-6V15h16v8a1 1 0 0 0 1 1h6a1 1 0 0 0 0-2h-5v-7h10Z" fill="#eee"/><rect fill="#ffb74d" height="32" rx="2" transform="rotate(180 55 45)" width="12" x="49" y="29"/><path d="M59 29h-5a2 2 0 0 1 2 2v25a2 2 0 0 1-2 2h-5v1a2 2 0 0 0 2 2h8a2 2 0 0 0 2-2V31a2 2 0 0 0-2-2Z" fill="#ffa726"/><path d="m45 55-4 6-4-6V33a4 4 0 0 1 4-4 4 4 0 0 1 4 4Z" fill="#ffb74d"/><path fill="#ffa726" d="M41 35h4v20h-4z"/><path fill="#ffccbc" d="m45 55-4 6-4-6h8z"/><path d="M45 33v2h-8v-2a4 4 0 1 1 8 0Z" fill="#ef5350"/><path d="M43.83 30.17A4.025 4.025 0 0 0 41 29a3.96 3.96 0 0 0-2.002.555 4.1 4.1 0 0 1 .832.615A4.025 4.025 0 0 1 41 33v2h4v-2a4.025 4.025 0 0 0-1.17-2.83Z" fill="#e53935"/><path d="M56 35a1 1 0 0 0 1 1h4v-2h-4a1 1 0 0 0-1 1ZM61 49h-6a1 1 0 0 0 0 2h6ZM54 40a1 1 0 0 0 1 1h6v-2h-6a1 1 0 0 0-1 1ZM56 45a1 1 0 0 0 1 1h4v-2h-4a1 1 0 0 0-1 1ZM57 54a1 1 0 0 0 0 2h4v-2Z" fill="#e0e0e0"/><path d="M56 49v2h-1a1 1 0 0 1 0-2ZM56 39v2h-1a1 1 0 0 1 0-2Z" fill="#eee"/><path d="M41 55v1a2 2 0 0 1-2 2l2 3 4-6Z" fill="#ffab91"/><path fill="#757575" d="M43 58h-4l2 3 2-3z"/></g></svg>