<svg fill="none" height="100" viewBox="0 0 100 100" width="100" xmlns="http://www.w3.org/2000/svg" xmlns:xlink="http://www.w3.org/1999/xlink"><linearGradient id="a"><stop offset="0" stop-color="#f9a03c"/><stop offset="1" stop-color="#f7974e"/></linearGradient><linearGradient id="b" gradientUnits="userSpaceOnUse" x1="-2225.51" x2="2839.46" xlink:href="#a" y1="-2484.03" y2="3020.97"/><linearGradient id="c" gradientUnits="userSpaceOnUse" x1="-3463.95" x2="1350.71" xlink:href="#a" y1="-3302.19" y2="1396.74"/><linearGradient id="d" gradientUnits="userSpaceOnUse" x1="-3024.91" x2="1186.33" xlink:href="#a" y1="-3418.04" y2="1572.22"/><linearGradient id="e" gradientUnits="userSpaceOnUse" x1="981.814" x2="6631.92" y1="-137.317" y2="7791.61"><stop offset="0" stop-color="#f26d58"/><stop offset="1" stop-color="#f9a03c"/></linearGradient><linearGradient id="f" gradientUnits="userSpaceOnUse" x1="894.748" x2="6784.85" y1="235.358" y2="3814.12"><stop offset="0" stop-color="#b84e51"/><stop offset="1" stop-color="#f68e48"/></linearGradient><linearGradient id="g" gradientUnits="userSpaceOnUse" x1="2797.92" x2="2876.98" xlink:href="#a" y1="786.37" y2="4626.39"/><path d="m92.8665 68.6821c.0385-.3725.0663-.7485.0878-1.1263.026-.4473-27.0728-26.0133-27.0728-26.0133h-.6479s27.4671 28.8085 27.6329 27.1396z" fill="url(#b)"/><path d="m35.0505 59.8135c-.0359.0784-.0717.1568-.1085.2352-.0385.082-.0779.164-.1174.245-.8638 1.7911 12.0932 14.386 13.1354 12.8561.0475-.0677.095-.139.1425-.2067.0529-.0802.1048-.1568.1568-.237.8334-1.2582-12.8387-13.7106-13.2088-12.8926z" fill="url(#c)"/><path d="m53.36 77.5244c-.0368.0802-.2976.5186-.5359.7503-.0404.0802 12.6487 12.5932 12.6487 12.5932h1.1426c.0009 0-11.9113-12.8142-13.2554-13.3435z" fill="url(#d)"/><path d="m92.9722 67.3284c-.5932 13.0806-11.4766 23.5397-24.7733 23.5397h-1.7976l-13.2788-13.0075c1.0924-1.5317 2.1077-3.1187 3.0119-4.7734h12.0645c3.8157 0 6.9208-3.0857 6.9208-6.8816 0-3.7941-3.1051-6.8815-6.9208-6.8815h-7.1394c.5439-2.8594.8415-5.8079.8415-8.8241 0-3.0625-.3029-6.0529-.8666-8.9577h4.4349l27.4249 26.8696c.0323-.36.0583-.72.078-1.0835zm-78.7584-57.3284h-7.2138v17.7809h7.2138c12.5995 0 22.8511 10.1909 22.8511 22.7191 0 3.4083-.7644 6.6437-2.1229 9.5485l13.1605 12.8944c4.3211-6.429 6.8472-14.1472 6.8472-22.4429 0-22.3315-18.2746-40.5-40.7359-40.5z" fill="url(#e)"/><path d="m68.1989 10h-29.2118c7.1349 4.3314 13.043 10.4734 17.0684 17.7809h12.1434c3.8157 0 6.9207 3.0857 6.9207 6.8816 0 3.795-3.105 6.8807-6.9207 6.8807h-2.7287l27.4249 26.8696c.0645-.7289.1049-1.4622.1049-2.2072 0-5.994-2.1633-11.4927-5.7549-15.7724 3.5916-4.278 5.7549-9.7775 5.7549-15.7707 0-13.5983-11.1245-24.6625-24.8011-24.6625z" fill="url(#f)"/><path d="m66.4013 90.868h-27.2054c5.4762-3.3628 10.2104-7.8021 13.9266-13.0076zm-18.2988-17.9253-13.1596-12.8944c-3.6356 7.7691-11.5582 13.1724-20.7291 13.1724h-7.2138v17.7792h7.2138c14.1175 0 26.5781-7.1801 33.8887-18.0572z" fill="url(#g)"/></svg>