<?xml version="1.0" encoding="UTF-8"?><svg id="Layer_2" xmlns="http://www.w3.org/2000/svg" viewBox="0 0 36 36"><defs><style>.cls-1{stroke-width:0px;}</style></defs><g id="Layer_1-2"><path class="cls-1" d="m32,0H4C1.79,0,0,1.79,0,4v28c0,2.21,1.79,4,4,4h28c2.21,0,4-1.79,4-4V4c0-2.21-1.79-4-4-4Zm-12.07,29.94l-.05-.04s.07,0,.11-.02v-8.26h2.58l.53-3.28h-3.11v-2.29c0-.94.35-1.64,1.76-1.64h1.52v-2.99c-.82-.12-1.76-.23-2.58-.23-2.7,0-4.57,1.64-4.57,4.57v2.58h-2.93v3.28h2.93v8.26s0,0,.01,0l-.07.06c-5.57-1-9.79-5.8-9.79-11.61,0-6.45,5.28-11.72,11.72-11.72s11.72,5.28,11.72,11.72c0,5.8-4.22,10.61-9.79,11.61Z"/></g></svg>