<svg xmlns="http://www.w3.org/2000/svg" viewBox="0 0 86.8 86.3" >
<path d="M79.1,0H7.7C3.5,0,0,3.5,0,7.7v70.9c0,4.3,3.5,7.7,7.7,7.7h71.4c4.3,0,7.7-3.5,7.7-7.7l0-70.9C86.8,3.5,83.3,0,79.1,0
	L79.1,0z M22.8,73.3c-4.4,0-8-3.6-8-8c0-4.4,3.6-8,8-8c4.4,0,8,3.6,8,8C30.7,69.7,27.1,73.3,22.8,73.3z M53.1,73.3h-8.2
	c0-0.7,0.1-1.4,0.1-2.1c0-16.7-13.6-30.3-30.3-30.3h0v-8.2h0c21.2,0,38.5,17.3,38.5,38.5C53.2,71.9,53.1,72.6,53.1,73.3z M71.4,73.3
	h-7.7c0.5-2.6,0.8-5.2,0.8-8c0-24.7-20.1-44.7-44.7-44.7c-1.7,0-3.3,0.1-5,0.3v-7.7c1.6-0.2,3.3-0.3,5-0.3
	c28.9,0,52.4,23.5,52.4,52.4C72.1,68.1,71.8,70.7,71.4,73.3L71.4,73.3z"/>
</svg>
