<?xml version="1.0" encoding="UTF-8"?><svg id="Layer_2" xmlns="http://www.w3.org/2000/svg" viewBox="0 0 36 36"><defs><style>.cls-1{stroke-width:0px;}</style></defs><g id="Layer_1-2"><path class="cls-1" d="m32,0H4C1.79,0,0,1.79,0,4v28c0,2.21,1.79,4,4,4h28c2.21,0,4-1.79,4-4V4c0-2.21-1.79-4-4-4ZM12,28h-5.05v-14h5.05v14Zm-2.61-16.57c-1.54,0-2.57-1.03-2.57-2.4s1.03-2.4,2.74-2.4c1.54,0,2.57,1.03,2.57,2.4s-1.03,2.4-2.74,2.4Zm20.61,16.57h-4.88v-7.65c0-2.12-1.3-2.6-1.79-2.6s-2.12.33-2.12,2.6v7.65h-5.05v-14h5.05v1.95c.65-1.14,1.95-1.95,4.39-1.95s4.4,1.95,4.4,6.35v7.65Z"/></g></svg>