<?xml version="1.0" encoding="UTF-8"?><svg id="Layer_2" xmlns="http://www.w3.org/2000/svg" viewBox="0 0 36 36"><defs><style>.cls-1{stroke-width:0px;}</style></defs><g id="Layer_1-2"><path class="cls-1" d="m17.99,14.12c-2.29,0-4.15,1.87-4.14,4.17,0,2.29,1.87,4.15,4.17,4.14,2.29,0,4.15-1.87,4.14-4.17,0-2.29-1.87-4.15-4.17-4.14Z"/><path class="cls-1" d="m28.13,13.21c-.06-1.21-.26-1.87-.44-2.31-.23-.58-.5-1-.94-1.43-.44-.43-.85-.7-1.44-.93-.44-.17-1.1-.37-2.32-.42-1.31-.06-1.71-.07-5.04-.06-.42,0-.79,0-1.12,0h0c-2.32,0-2.77.02-3.92.08-1.21.06-1.87.26-2.31.44-.58.23-1,.5-1.43.94-.43.44-.7.85-.93,1.44-.17.44-.37,1.1-.42,2.32-.06,1.31-.07,1.71-.06,5.03.01,3.33.02,3.72.09,5.04.06,1.21.26,1.87.44,2.31.23.58.5.99.94,1.43s.85.7,1.44.93c.44.17,1.1.37,2.32.42,1.31.06,1.71.07,5.04.06,3.33-.01,3.72-.02,5.04-.09,1.21-.06,1.87-.26,2.31-.44.58-.23.99-.5,1.43-.94.43-.44.7-.85.93-1.43.17-.44.37-1.1.42-2.31.06-1.31.07-1.71.06-5.03-.01-3.33-.02-3.72-.09-5.03Zm-10.11,11.47c-3.53.01-6.41-2.84-6.42-6.38-.01-3.53,2.84-6.41,6.38-6.42h0,0,0c3.53-.01,6.41,2.85,6.42,6.38.01,3.53-2.84,6.41-6.38,6.42Zm6.62-11.58c-.83,0-1.5-.67-1.5-1.49,0-.83.67-1.5,1.49-1.5h0c.83,0,1.5.66,1.5,1.49,0,.83-.67,1.5-1.49,1.5Z"/><path class="cls-1" d="m32,0H4C1.79,0,0,1.79,0,4v28c0,2.21,1.79,4,4,4h28c2.21,0,4-1.79,4-4V4c0-2.21-1.79-4-4-4Zm-1.6,23.38c-.06,1.33-.27,2.23-.57,3.03-.32.82-.74,1.52-1.43,2.21-.69.7-1.38,1.12-2.2,1.45-.79.31-1.7.52-3.02.59-1.33.06-1.75.08-5.14.09-3.38.01-3.81,0-5.14-.06-1.33-.06-2.23-.26-3.03-.57-.82-.32-1.52-.74-2.21-1.43-.7-.69-1.12-1.38-1.44-2.2-.31-.79-.52-1.7-.59-3.02-.06-1.33-.08-1.75-.09-5.14s0-3.81.06-5.14c.06-1.33.26-2.23.57-3.03.32-.82.74-1.52,1.43-2.21.69-.7,1.38-1.12,2.2-1.44.79-.31,1.7-.52,3.02-.59,1.33-.06,1.75-.08,5.14-.09h0c3.39-.01,3.81,0,5.14.06,1.33.06,2.23.26,3.03.57.82.32,1.52.74,2.21,1.43.7.69,1.12,1.38,1.45,2.2.31.79.52,1.7.59,3.02.06,1.33.08,1.75.09,5.14.01,3.38,0,3.81-.06,5.14Z"/></g></svg>