<svg enable-background="new 0 0 800 800" viewBox="0 0 800 800" xmlns="http://www.w3.org/2000/svg"><path d="m602.3 432.5c-26.9 0-48.8 21.9-48.8 48.8v71.3l-97.6-48.8v-48.3c93.9-28.1 162.7-115.2 162.7-218.1 0-125.6-102.2-227.7-227.7-227.7s-227.8 102.1-227.8 227.6c0 102.9 68.7 190 162.7 218.1v48.3l-97.6 48.8v-71.3c0-26.9-21.9-48.8-48.8-48.8s-48.8 21.9-48.8 48.8v260.3c0 9 7.3 16.3 16.3 16.3h16.3v16.3c0 9 7.3 16.3 16.3 16.3s16.3-7.3 16.3-16.3v-16.3h16.3c9 0 16.3-7.3 16.3-16.3v-87.5l97.6-48.8v38.8c0 9 7.3 16.3 16.3 16.3 0 36.5 21.4 65.1 48.8 65.1s48.8-28.6 48.8-65.1c9 0 16.3-7.3 16.3-16.3v-38.7l97.6 48.8v87.5c0 9 7.3 16.3 16.3 16.3h15.9v16.3c0 9 7.3 16.3 16.3 16.3s16.3-7.3 16.3-16.3v-16.3h16.3c9 0 16.3-7.3 16.3-16.3v-260.3c-.1-26.9-22-48.8-48.9-48.8zm-195.2 113.9c0 9-7.3 16.3-16.3 16.3s-16.3-7.3-16.3-16.3v-162.7c0-9 7.3-16.3 16.3-16.3s16.3 7.3 16.3 16.3zm-16.3-244c-39.7 0-65.1-64.1-65.1-97.6 0-35.9 29.2-65.1 65.1-65.1s65.1 29.2 65.1 65.1c0 33.5-25.3 97.6-65.1 97.6z" fill="#2778bf"/></svg>