<svg fill="none" height="100" viewBox="0 0 100 100" width="100" xmlns="http://www.w3.org/2000/svg" xmlns:xlink="http://www.w3.org/1999/xlink"><linearGradient id="a" gradientUnits="userSpaceOnUse" x1="14.7723" x2="58.9488" y1="13.7681" y2="57.8619"><stop offset="0" stop-color="#387eb8"/><stop offset="1" stop-color="#366994"/></linearGradient><linearGradient id="b" gradientUnits="userSpaceOnUse" x1="41.8065" x2="89.2403" y1="41.9658" y2="87.1731"><stop offset="0" stop-color="#ffe052"/><stop offset="1" stop-color="#ffc331"/></linearGradient><path d="m50.3487 6c-22.5624 0-21.153 9.8353-21.153 9.8353l.0249 10.1897h21.5305v3.0592h-30.0823s-14.4379-1.6457-14.4379 21.2386 12.602 22.0728 12.602 22.0728h7.5199v-10.6193s-.4048-12.6671 12.4008-12.6671h21.3542s11.9975.195 11.9975-11.6558v-19.5954s1.8214-11.858-21.7566-11.858zm-11.872 6.8522c.5088-.0005 1.0127.0998 1.4829.2953.4702.1954.8974.4822 1.2573.8438.3598.3616.6451.791.8397 1.2636.1945.4726.2944.9792.294 1.4906.0005.5116-.0993 1.0182-.2938 1.4909s-.4798.9022-.8397 1.2639c-.3598.3617-.7871.6485-1.2573.8441-.4702.1955-.9742.2958-1.4831.2953-.5089.0005-1.0128-.0998-1.4831-.2953-.4702-.1956-.8975-.4824-1.2573-.8441s-.6452-.7912-.8397-1.2639-.2943-.9793-.2938-1.4909c-.0005-.5115.0993-1.0181.2938-1.4908s.4799-.9022.8397-1.2639.7871-.6486 1.2573-.8441c.4703-.1955.9742-.2959 1.4831-.2953z" fill="url(#a)"/><path d="m50.9893 94.8755c22.5624 0 21.153-9.8354 21.153-9.8354l-.0241-10.1896h-21.5305v-3.0592h30.0815s14.4379 1.6457 14.4379-21.2387c0-22.8851-12.602-22.0736-12.602-22.0736h-7.5199v10.6193s.4048 12.668-12.4008 12.668h-21.3534s-11.9983-.195-11.9983 11.6557v19.5954s-1.8214 11.8581 21.7566 11.8581zm11.872-6.8522c-.5088.0004-1.0126-.1-1.4827-.2955s-.8972-.4823-1.2569-.8439c-.3598-.3616-.645-.791-.8395-1.2636-.1945-.4725-.2944-.979-.294-1.4904-.0005-.5115.0993-1.018.2937-1.4906.1945-.4727.4797-.9022.8395-1.2639.3597-.3617.7869-.6485 1.257-.8441.4702-.1955.9741-.296 1.4829-.2955.5089-.0006 1.0128.0998 1.4831.2953.4702.1955.8975.4823 1.2573.844.3598.3618.6452.7913.8397 1.264s.2943.9793.2938 1.4908c.0004.5115-.0995 1.018-.2941 1.4906-.1945.4726-.4799.902-.8397 1.2637-.3598.3616-.787.6483-1.2572.8438s-.9741.2958-1.4829.2953z" fill="url(#b)"/></svg>