<svg viewBox="0 0 512 512" xmlns="http://www.w3.org/2000/svg"><circle cx="128" cy="200" r="40" style="fill:#ffc119"/><path style="fill:#ffc119" d="M208 424v48H48v-48l40-48 13.71-96 2.29-16v-8h48v8l2.29 16L168 376l40 48z"/><path style="fill:#faac2b" d="M154.29 280h-52.58l2.29-16v-8h48v8l2.29 16z"/><rect height="32" rx="16" style="fill:#d69f44" width="80" x="88" y="232"/><path style="fill:#d69f44" d="M80 288h96v16H80z"/><path style="fill:#faac2b" d="M48 424h160v48H48z"/><rect height="32" rx="16" style="fill:#ffc119" width="208" x="24" y="456"/><circle cx="384" cy="200" r="40" style="fill:#ffc119"/><path style="fill:#ffc119" d="M304 424v48h160v-48l-40-48-13.71-96-2.29-16v-8h-48v8l-2.29 16L344 376l-40 48z"/><path style="fill:#faac2b" d="M357.71 280h52.58L408 264v-8h-48v8l-2.29 16z"/><rect height="32" rx="16" style="fill:#d69f44" transform="rotate(-180 384 248)" width="80" x="344" y="232"/><path style="fill:#d69f44" d="M336 288h96v16h-96z"/><path style="fill:#faac2b" transform="rotate(-180 384 448)" d="M304 424h160v48H304z"/><rect height="32" rx="16" style="fill:#ffc119" transform="rotate(-180 384 472)" width="208" x="280" y="456"/><path style="fill:#ecaf4a" d="M352 424v48H160v-48l56-80 13.87-104 2.13-16v-8h48v8l2.13 16L296 344l56 80z"/><path style="fill:#d18b29" d="M282.13 240h-52.26l2.13-16v-8h48v8l2.13 16z"/><path d="M272 160V96h24V64h-24l8-32s-8-8-24-8-24 8-24 8l8 32h-24v32h24v64Z" style="fill:#ffc119"/><rect height="32" rx="16" style="fill:#d18b29" width="80" x="216" y="128"/><path style="fill:#ecaf4a" d="M296 224h-80l-16-64h112l-16 64z"/><path style="fill:#ffc119" d="M208 248h96v16h-96z"/><path style="fill:#d18b29" d="M160 424h192v32H160z"/><rect height="32" rx="16" style="fill:#ecaf4a" width="240" x="136" y="456"/></svg>