<svg fill="none" height="100" viewBox="0 0 100 100" width="100" xmlns="http://www.w3.org/2000/svg"><path d="m69.7833 51.6718c4.2319.8594 8.6108.6561 12.7448-.5916 4.1341-1.2477 7.8943-3.501 10.9441-6.5581l-37.0389-37.03882c-2.4335 2.43116-4.364 5.31812-5.6811 8.49582-1.3171 3.1776-1.9951 6.5838-1.9951 10.0236s.678 6.8459 1.9951 10.0236 3.2476 6.0646 5.6811 8.4958c.6659.6674 1.3691 1.2963 2.1064 1.8838" fill="#222"/><path d="m84.4683 45.3914c-.195.0004-.3883-.0378-.5685-.1124s-.3439-.1841-.4817-.3222l-27.412-27.412c-.2783-.2781-.4348-.6554-.4349-1.0489s.156-.7709.4342-1.0493c.2781-.2783.6554-.4347 1.0489-.4349.3935-.0001.7709.1561 1.0492.4342l27.412 27.412c.2079.2074.3496.4718.4071.7597.0575.288.0283.5865-.084.8578s-.3027.5032-.5468.6663c-.2442.163-.5313.25-.825.2497z" fill="#a5a5a4"/><path d="m75.7167 28.25c-.2933 0-.5801-.0871-.8239-.2501-.2439-.163-.434-.3946-.5462-.6656-.1123-.271-.1416-.5692-.0844-.8569s.1984-.552.4058-.7594l6.2923-6.2923c.2797-.2702.6544-.4197 1.0434-.4164.3889.0034.7609.1594 1.0359.4344.2751.2751.4311.6471.4344 1.036.0034.3889-.1461.7636-.4163 1.0434l-6.2923 6.2923c-.1376.1379-.301.2474-.481.3219-.18.0746-.3729.1129-.5677.1127z" fill="#4d018d"/><path d="m86.2057 20.4732c1.1585-1.1585 1.1585-3.0369 0-4.1955-1.1586-1.1585-3.037-1.1585-4.1955 0-1.1586 1.1586-1.1586 3.037 0 4.1955 1.1585 1.1586 3.0369 1.1586 4.1955 0z" fill="#d2188e"/><path d="m63.85 43.0834c1.5736 0 3.0828.6251 4.1955 1.7378s1.7378 2.6219 1.7378 4.1955v17.8h-11.8666v-17.8c0-1.5736.6251-3.0828 1.7378-4.1955s2.6219-1.7378 4.1955-1.7378z" fill="#d2188e"/><path d="m19.35 81.65h11.8667c.7868 0 1.5414.3126 2.0977.869.5564.5563.869 1.3109.869 2.0977v4.45h-17.8v-4.45c0-.7868.3125-1.5414.8689-2.0977.5563-.5564 1.3109-.869 2.0977-.869zm23.7334-16.3166h41.5333c.7868 0 1.5414.3125 2.0978.8689.5563.5563.8689 1.3109.8689 2.0977v22.25h-47.4667v-22.25c0-.7868.3126-1.5414.8689-2.0977.5564-.5564 1.311-.8689 2.0978-.8689z" fill="#222"/><path d="m8.96667 87.5833h83.06663c.3934 0 .7707.1562 1.0489.4344s.4345.6555.4345 1.0489v4.45h-86.03336v-4.45c0-.3934.15628-.7707.43446-1.0489.27817-.2782.65547-.4344 1.04887-.4344z" fill="#4d018d"/><path d="m28.2797 52.5515c2.6402 2.5048 4.1784 5.9551 4.2769 9.5931.0984 3.638-1.2509 7.1664-3.7518 9.8104-2.6438 2.5011-6.1721 3.8507-9.8101 3.7525s-7.0884-1.6361-9.59339-4.2761z" fill="#222"/><path d="m18.8412 63.4748c-.1948.0002-.3877-.0381-.5677-.1127s-.3434-.184-.481-.322l-6.2938-6.2937c-.2702-.2798-.4197-.6545-.4163-1.0434s.1594-.761.4344-1.036.6471-.431 1.036-.4344.7636.1461 1.0434.4163l6.2937 6.2938c.2074.2075.3486.4717.4059.7594.0572.2877.0278.5859-.0845.8569-.1122.271-.3023.5027-.5461.6657-.2439.163-.5306.25-.824.2501z" fill="#4d018d"/><path d="m12.5478 55.698c1.1585-1.1586 1.1585-3.037 0-4.1955-1.1586-1.1586-3.03698-1.1586-4.19553 0-1.15856 1.1585-1.15856 3.0369 0 4.1955 1.15855 1.1585 3.03693 1.1585 4.19553 0z" fill="#d2188e"/><path d="m25.2834 84.6166c-.3935 0-.7707-.1562-1.0489-.4344s-.4345-.6555-.4345-1.0489v-8.6923c0-.3934.1563-.7707.4345-1.0489s.6554-.4345 1.0489-.4345c.3934 0 .7706.1563 1.0488.4345s.4345.6555.4345 1.0489v8.6923c0 .3934-.1563.7707-.4345 1.0489s-.6554.4344-1.0488.4344z" fill="#4d018d"/><g fill="#fff"><path d="m53.4667 71.2667h-5.9333c-.8193 0-1.4834.6641-1.4834 1.4834v5.9333c0 .8192.6641 1.4833 1.4834 1.4833h5.9333c.8192 0 1.4833-.6641 1.4833-1.4833v-5.9333c0-.8193-.6641-1.4834-1.4833-1.4834z"/><path d="m65.3333 71.2667h-2.9666c-.8193 0-1.4834.6641-1.4834 1.4834v5.9333c0 .8192.6641 1.4833 1.4834 1.4833h2.9666c.8193 0 1.4834-.6641 1.4834-1.4833v-5.9333c0-.8193-.6641-1.4834-1.4834-1.4834z"/><path d="m80.1667 71.2667h-5.9334c-.8192 0-1.4833.6641-1.4833 1.4834v5.9333c0 .8192.6641 1.4833 1.4833 1.4833h5.9334c.8192 0 1.4833-.6641 1.4833-1.4833v-5.9333c0-.8193-.6641-1.4834-1.4833-1.4834z"/></g></svg>