<svg fill="none" height="100" viewBox="0 0 100 100" width="100" xmlns="http://www.w3.org/2000/svg"><path d="m89.7226 61.1819v-6.6179c0-1.3873-1.122-2.5092-2.5092-2.5092h-.9097c0-1.7511-1.2432-3.29-3.1308-4.1921l-9.5819-23.2802c.288-.8187.4396-1.6905.4396-2.6077 0-4.3892-3.5629-7.9445-7.9445-7.9445-2.5243 0-4.7682 1.175-6.2313 3.0095l-21.0514 15.1537s-5.5263-2.911-8.3236-1.6829c-2.7896 1.2281-8.3993 11.0677-8.3993 11.0677l6.3526-3.7979c.9021-.5382 2.0619-.2425 2.6001.652l1.0234 1.7056 1.0158 1.7057c.5382.8945.2426 2.0619-.6519 2.6001l-6.3602 3.7979s11.5453-.3487 13.7286-2.1605c2.1832-1.8193 2.4637-8.1492 2.4637-8.1492l19.884-9.0588 10.105 23.1816h-.9021c-1.3872 0-2.5168 1.1219-2.5168 2.5092v6.6179h-11.9016v-6.2616h-16.7759v6.2616h-6.815v14.009h-6.2617v-20.6118h-20.60415v20.6118h-3.46435v11.5529h30.3302v-.0151h63.6698v-25.5468z" fill="#ffd7d2"/><path d="m33.3302 86.6984v.0151h-30.3302v-11.5529h30.3302z" fill="#174a80"/><path d="m33.3302 61.1519h63.6698v25.5467h-63.6698z" fill="#c3ddda"/><path d="m14.4088 54.5488h4.7152v8.1947h-4.7152z" fill="#a35757"/><path d="m27.0685 54.5488v20.6118h-20.60414v-20.6118h7.94454v8.1947h4.7151v-8.1947zm13.0767.3412h16.7759v6.2616h-16.7759z" fill="#f9b132"/><path d="m89.7226 54.5336v6.6179h-20.8998v-6.6179c0-1.3872 1.1295-2.5092 2.5167-2.5092h15.8739c1.3873 0 2.5092 1.122 2.5092 2.5092z" fill="#2778bf"/><path d="m86.3037 52.0248h-14.0621c0-1.3797.7656-2.6229 2.0164-3.5326 1.2736-.9249 3.0475-1.501 5.0184-1.501 1.4403 0 2.7821.3108 3.8965.8415 1.8876.9021 3.1308 2.4409 3.1308 4.1921z" fill="#f9b132"/><path d="m83.1729 47.8324c-1.1144-.5306-2.4561-.8414-3.8965-.8414-1.9709 0-3.7448.5761-5.0184 1.5009-1.2508.9097-2.0164 2.1529-2.0164 3.5326l-10.105-23.1816c1.1598.6671 2.5092 1.0461 3.9495 1.0461 3.4719 0 6.4284-2.2287 7.5049-5.3368l8.5964 20.8847z" fill="#2778bf"/><path d="m66.0861 17.9951c2.1757 0 3.9419 1.7663 3.9419 3.9495 0 2.1757-1.7662 3.942-3.9419 3.942-1.0465 0-2.0501-.4157-2.79-1.1557-.74-.74-1.1557-1.7436-1.1557-2.7901 0-1.0464.4157-2.05 1.1557-2.79.7399-.74 1.7435-1.1557 2.79-1.1557z" fill="#ffc05a"/><path d="m74.0306 21.9445c.0002 1.0434-.2051 2.0765-.6043 3.0405s-.9844 1.8398-1.7221 2.5776c-.7378.7377-1.6136 1.3229-2.5776 1.7221s-1.9971.6045-3.0405.6043c-1.4403 0-2.7897-.379-3.9495-1.0461-1.2143-.6963-2.2232-1.7009-2.9247-2.9122s-1.0707-2.5864-1.0703-3.9862c0-1.8648.6444-3.5856 1.7132-4.935 1.4631-1.8345 3.707-3.0095 6.2313-3.0095 4.3816 0 7.9445 3.5553 7.9445 7.9445zm-4.0025 0c0-1.0465-.4158-2.0501-1.1557-2.79-.74-.74-1.7436-1.1557-2.7901-1.1557-1.0464 0-2.0501.4157-2.79 1.1557-.74.7399-1.1557 1.7435-1.1557 2.79 0 2.1757 1.7663 3.942 3.9495 3.942 2.1757 0 3.942-1.7663 3.942-3.942z" fill="#ef9d26"/><path d="m41.0776 35.8775c.6292 0 1.1371-.5079 1.1371-1.1371s-.5079-1.1371-1.1371-1.1371-1.1371.5079-1.1371 1.1371.5079 1.1371 1.1371 1.1371zm21.059-7.0348-19.884 9.0588-1.4631.6671c-1.0992.5004-2.3955.0607-2.9716-1.0006l-.8642-1.6147c-.5458-1.0158-.2577-2.2742.6747-2.9489l1.175-.8414 21.0514-15.1537c-1.1117 1.4044-1.7155 3.1438-1.7132 4.935 0 2.9488 1.6071 5.5263 3.995 6.8984z" fill="#2778bf"/><path d="m40.7895 38.569 1.463-.6671s-.2804 6.3299-2.4637 8.1492c-2.1832 1.8118-13.7285 2.1605-13.7285 2.1605l6.3601-3.7979c.8946-.5382 1.1902-1.7056.652-2.6002l-1.0158-1.7056-1.0234-1.7057c-.2587-.4308-.6778-.7414-1.1653-.8637-.4874-.1222-1.0035-.046-1.4349.2118l-6.3526 3.7979s5.6097-9.8397 8.3994-11.0677c2.7973-1.2281 8.3235 1.6829 8.3235 1.6829l-1.175.8414c-.4507.3263-.7677.8052-.8918 1.3476s-.0469 1.1115.2172 1.6013l.8642 1.6147c.5761 1.0613 1.8724 1.5009 2.9716 1.0006z" fill="#f9b132"/><path d="m41.0775 35.8777c.628 0 1.1371-.5091 1.1371-1.1371s-.5091-1.1371-1.1371-1.1371-1.1371.5091-1.1371 1.1371.5091 1.1371 1.1371 1.1371z" fill="#ffc05a"/><path d="m89.7226 61.1517v-6.6179c0-1.3873-1.122-2.5092-2.5092-2.5092h-.9097c0-1.7511-1.2432-3.29-3.1308-4.1921l-.9855-2.3955-7.9293 41.2615h22.7419v-25.5468z" fill="#d6eae8"/></svg>